<svg xmlns="http://www.w3.org/2000/svg"  viewBox="0 0 24 24" width="24px" height="24px"><polygon fill="#FF9800" points="20.189,12.33 20.189,12.33 20.188,12.33"/><path fill="#FF9800" d="M0.106,14.677c3.13,2.855,7.272,4.573,11.87,4.573c3.28,0,7.096-1.04,9.722-3	c0.431-0.323,0.056-0.815-0.383-0.613c-2.946,1.258-6.146,1.871-9.06,1.871c-4.318,0-8.493-1.202-11.877-3.186	C0.082,14.145-0.141,14.452,0.106,14.677z"/><path fill="#212121" d="M17.181,5.16c0-0.136-0.073-0.202-0.2-0.202H16.24c-0.011-0.001-0.023-0.001-0.034-0.001	c-0.104,0-0.2,0.03-0.279,0.082c-0.056,0.048-0.112,0.154-0.16,0.315l-1.381,5.403l-1.261-5.403	c-0.031-0.154-0.088-0.267-0.151-0.315c-0.064-0.056-0.168-0.081-0.32-0.081h-0.636c-0.012-0.001-0.023-0.001-0.035-0.001	c-0.106,0-0.205,0.03-0.287,0.082c-0.063,0.048-0.111,0.154-0.151,0.315L10.3,10.693L8.958,5.354	c-0.047-0.154-0.095-0.267-0.16-0.315c-0.055-0.056-0.159-0.081-0.31-0.081H7.705c-0.127,0-0.191,0.073-0.191,0.202l0.001,0.006	C7.527,5.28,7.552,5.39,7.586,5.484l1.875,6.235c0.048,0.153,0.104,0.266,0.168,0.314c0.064,0.057,0.16,0.081,0.304,0.081	l0.686-0.001c0.143,0,0.255-0.024,0.32-0.081c0.063-0.057,0.11-0.162,0.15-0.323l1.23-5.193l1.238,5.201	c0.031,0.162,0.087,0.267,0.15,0.323c0.065,0.057,0.169,0.081,0.32,0.081h0.686c0.01,0.001,0.019,0.001,0.029,0.001	c0.102,0,0.197-0.03,0.275-0.082c0.064-0.048,0.12-0.153,0.168-0.314l1.923-6.234L17.105,5.5c0.025-0.066,0.045-0.133,0.059-0.21	C17.172,5.241,17.181,5.201,17.181,5.16z"/><path fill="#212121" d="M21.682,10.202c0,0.008,0,0.014,0,0.022c0,0.314-0.164,0.589-0.415,0.744	c-0.271,0.178-0.663,0.267-1.165,0.267c-0.32,0-0.631-0.032-0.95-0.097c-0.312-0.065-0.607-0.161-0.878-0.282	c-0.08-0.032-0.152-0.065-0.2-0.081c-0.048-0.016-0.096-0.024-0.144-0.024c-0.119,0-0.183,0.081-0.183,0.25v0.411	c0.001,0.082,0.018,0.16,0.048,0.226c0.032,0.073,0.119,0.154,0.247,0.225c0.208,0.121,0.519,0.226,0.918,0.323	c0.399,0.096,0.813,0.144,1.228,0.144c0.408,0,0.782-0.057,1.141-0.169c0.343-0.105,0.638-0.25,0.886-0.452	c0.247-0.194,0.439-0.435,0.583-0.71c0.135-0.274,0.207-0.589,0.207-0.936c0-0.419-0.12-0.798-0.367-1.129	c-0.247-0.33-0.663-0.589-1.237-0.775l-1.134-0.362c-0.423-0.137-0.718-0.291-0.877-0.445c-0.16-0.153-0.24-0.347-0.24-0.573	c0-0.33,0.128-0.564,0.375-0.717c0.247-0.154,0.607-0.225,1.062-0.225c0.018,0,0.037,0,0.056,0c0.534,0,1.042,0.115,1.476,0.314	l-0.004-0.002c0.092,0.052,0.194,0.086,0.307,0.099c0.12,0,0.184-0.089,0.184-0.259V5.614c0.001-0.008,0.001-0.017,0.001-0.026	c0-0.09-0.027-0.173-0.072-0.24l-0.001-0.002c-0.063-0.082-0.143-0.151-0.239-0.2C22.216,5.096,22.104,5.048,21.96,5	c-0.143-0.047-0.295-0.088-0.455-0.128c-0.168-0.032-0.335-0.065-0.518-0.089c-0.176-0.024-0.36-0.032-0.535-0.032	c-0.351,0-0.686,0.041-1.006,0.137c-0.32,0.096-0.59,0.233-0.83,0.419c-0.24,0.177-0.431,0.403-0.575,0.661	c-0.143,0.259-0.216,0.557-0.216,0.895c0.002,0.443,0.152,0.851,0.4,1.17c0.263,0.363,0.694,0.637,1.277,0.821l1.157,0.364	c0.391,0.129,0.663,0.267,0.807,0.419c0.134,0.14,0.216,0.332,0.216,0.543c0,0.008,0,0.014,0,0.021	C21.682,10.201,21.682,10.201,21.682,10.202z"/><path fill="#FF9800" d="M22.424,18.169c1.405-1.193,1.772-3.685,1.485-4.048c-0.287-0.355-2.754-0.661-4.254,0.403	c-0.232,0.17-0.192,0.396,0.063,0.364c0.854-0.105,2.738-0.33,3.074,0.104c0.335,0.428-0.375,2.227-0.695,3.025	C22.001,18.258,22.209,18.355,22.424,18.169z"/><path fill="#212121" d="M4.52,7.944c-0.295-0.04-0.574-0.065-0.846-0.065c-0.822,0-1.468,0.21-1.955,0.629	c-0.487,0.418-0.726,0.976-0.726,1.661c0,0.646,0.199,1.162,0.59,1.549c0.391,0.387,0.926,0.58,1.596,0.58	c0.942,0,1.725-0.371,2.347-1.112l0.016,0.037c0.076,0.16,0.159,0.315,0.232,0.438l0.006,0.01c0.083,0.132,0.177,0.257,0.281,0.369	C6.14,12.113,6.22,12.154,6.3,12.154h0.001c0.077-0.003,0.149-0.03,0.207-0.073l0.503-0.338c0.104-0.081,0.152-0.162,0.152-0.242	c0-0.057-0.016-0.121-0.056-0.185c-0.112-0.21-0.192-0.404-0.256-0.582c-0.056-0.177-0.088-0.418-0.088-0.717l-0.016,0.001V7.404	c0-0.887-0.223-1.549-0.662-1.983C5.638,4.985,4.944,4.767,3.994,4.767c-0.015,0-0.031,0-0.046,0c-0.426,0-0.84,0.056-1.2,0.153	C2.357,5.017,2.022,5.138,1.743,5.283L1.739,5.284c-0.085,0.037-0.16,0.095-0.22,0.167c-0.04,0.057-0.056,0.154-0.056,0.283v0.395	c0,0.169,0.056,0.25,0.168,0.25h0.001c0.045-0.002,0.088-0.01,0.126-0.023l0.016-0.004C1.87,6.321,1.963,6.286,2.038,6.25	C2.317,6.137,2.605,6.048,2.9,5.975c0.295-0.073,0.583-0.104,0.863-0.104c0.614,0,1.045,0.12,1.3,0.371	c0.248,0.25,0.375,0.677,0.375,1.29v0.589C5.12,8.049,4.815,7.984,4.52,7.944z M5.455,9.025v0.338c0,0.274-0.033,0.508-0.08,0.701	c-0.048,0.194-0.144,0.364-0.272,0.517C4.888,10.823,4.632,11,4.345,11.097c-0.288,0.097-0.559,0.145-0.822,0.145	c-0.368,0-0.647-0.097-0.838-0.299c-0.2-0.193-0.295-0.476-0.295-0.855c0-0.403,0.127-0.709,0.39-0.926	c0.264-0.218,0.655-0.323,1.19-0.323c0.265,0,0.525,0.018,0.75,0.048l0.034,0.004C5.008,8.925,5.257,8.973,5.455,9.025z"/></svg>