<svg xmlns="http://www.w3.org/2000/svg"  viewBox="0 0 24 24" width="24px" height="24px"><path d="M 7.2070312 2.0039062 C 6.9818532 1.9921634 6.7510852 2.0227774 6.5273438 2.0996094 L 4.703125 2.7265625 C 2.6693526 3.4245218 1.5230068 5.6375992 2.1914062 7.6933594 C 2.9661189 10.073426 4.5097005 13.419857 7.5449219 16.455078 C 10.580143 19.490299 13.926574 21.033881 16.306641 21.808594 C 18.362401 22.476993 20.575478 21.330647 21.273438 19.296875 L 21.900391 17.472656 A 0.750075 0.750075 0 0 0 21.902344 17.472656 C 22.209238 16.577268 21.76582 15.580086 20.896484 15.207031 L 17.513672 13.755859 C 16.757897 13.431956 15.87528 13.603236 15.292969 14.185547 L 13.908203 15.568359 C 13.432608 15.340907 12.334331 14.764018 10.785156 13.214844 C 9.235982 11.665669 8.6588152 10.567036 8.4316406 10.091797 L 9.8144531 8.7070312 C 10.39587 8.1256148 10.567834 7.2431992 10.244141 6.4863281 L 8.7929688 3.1054688 L 8.7929688 3.1035156 C 8.5128812 2.4510259 7.8825655 2.0391347 7.2070312 2.0039062 z M 7.0136719 3.5175781 C 7.1782395 3.4610661 7.3450568 3.5341951 7.4140625 3.6953125 L 8.8652344 7.0761719 C 8.9495414 7.2733008 8.9044894 7.4959008 8.7539062 7.6464844 L 6.9804688 9.421875 A 0.750075 0.750075 0 0 0 6.8144531 10.232422 C 6.8144531 10.232422 7.6013501 12.152131 9.7246094 14.275391 C 11.847869 16.39865 13.767578 17.185547 13.767578 17.185547 A 0.750075 0.750075 0 0 0 14.578125 17.019531 L 16.353516 15.246094 C 16.505205 15.094405 16.727603 15.050669 16.923828 15.134766 L 20.304688 16.585938 C 20.465352 16.654888 20.539528 16.819716 20.482422 16.986328 L 19.855469 18.810547 C 19.415428 20.092775 18.049724 20.79646 16.771484 20.380859 C 14.555551 19.659572 11.430247 18.21931 8.6054688 15.394531 C 5.78069 12.569753 4.340428 9.4444493 3.6191406 7.2285156 C 3.2035402 5.9502758 3.9072255 4.584572 5.1894531 4.1445312 L 7.0136719 3.5175781 z"/></svg>